<?xml version="1.0" standalone="no"?>
<!DOCTYPE svg PUBLIC "-//W3C//DTD SVG 20010904//EN"
 "http://www.w3.org/TR/2001/REC-SVG-20010904/DTD/svg10.dtd">
<svg version="1.0" xmlns="http://www.w3.org/2000/svg"
 width="301.000000pt" height="167.000000pt" viewBox="0 0 301.000000 167.000000"
 preserveAspectRatio="xMidYMid meet">
<metadata>
Created by potrace 1.15, written by Peter Selinger 2001-2017
</metadata>
<g transform="translate(0.000000,167.000000) scale(0.100000,-0.100000)"
fill="#000000" stroke="none">
<path d="M1013 1366 c-95 -161 -173 -296 -173 -300 0 -4 5 -4 10 -1 16 10 11
-1 -7 -16 -11 -10 -14 -10 -9 -1 4 6 5 12 3 12 -12 0 -67 -113 -67 -137 1 -24
2 -25 11 -10 5 9 7 22 3 29 -4 7 -3 8 4 4 6 -3 9 -21 7 -39 l-4 -32 290 3
c284 3 291 3 286 22 -3 12 0 20 6 20 17 0 70 87 61 101 -4 7 -3 9 4 6 14 -9
64 77 56 97 -3 9 -10 16 -15 16 -5 0 -8 3 -7 8 1 4 -7 25 -19 47 -33 64 -254
449 -261 457 -4 4 -85 -125 -179 -286z"/>
<path d="M1123 451 c-44 -73 -163 -282 -163 -288 0 -2 -9 -17 -20 -33 -11 -17
-29 -43 -40 -60 l-21 -30 680 0 679 0 115 197 c63 109 122 212 131 230 l16 32
-617 2 c-340 1 -642 3 -672 4 l-53 3 -35 -57z"/>
</g>
</svg>
